<?xml version="1.0" encoding="utf-8"?>
<!-- Generator: Adobe Illustrator 21.1.0, SVG Export Plug-In . SVG Version: 6.00 Build 0)  -->
<svg version="1.1" id="图层_1" xmlns="http://www.w3.org/2000/svg" xmlns:xlink="http://www.w3.org/1999/xlink" x="0px" y="0px"
	 viewBox="0 0 120 120" style="enable-background:new 0 0 120 120;" xml:space="preserve">
<style type="text/css">
	.st0{fill:#CCDFFF;}
	.st1{fill:#EFF7FF;}
	.st2{fill:#CCE1FF;}
</style>
<path class="st0" d="M101,0H19c-2.2,0-4,1.8-4,4v112c0,2.2,1.8,4,4,4h82c2.2,0,4-1.8,4-4V4C105,1.8,103.2,0,101,0z M103,114
	c0,2.2-1.8,4-4,4H21c-2.2,0-4-1.8-4-4V16h86V114z"/>
<path class="st1" d="M67,99H29V35c0-2.2,1.8-4,4-4h30c2.2,0,4,1.8,4,4V99z"/>
<path class="st1" d="M91,99H67V59c0-2.2,1.8-4,4-4h16c2.2,0,4,1.8,4,4V99z"/>
<path class="st2" d="M57,67H39c-1.7,0-3-1.3-3-3v0c0-1.7,1.3-3,3-3h18c1.7,0,3,1.3,3,3v0C60,65.7,58.7,67,57,67z"/>
<path class="st2" d="M51,55v18c0,1.7-1.3,3-3,3h0c-1.7,0-3-1.3-3-3V55c0-1.7,1.3-3,3-3h0C49.7,52,51,53.3,51,55z"/>
<path class="st2" d="M82,73h-6c-1.7,0-3-1.3-3-3l0,0c0-1.7,1.3-3,3-3h6c1.7,0,3,1.3,3,3l0,0C85,71.7,83.7,73,82,73z"/>
<path class="st2" d="M82,84.6h-6c-1.7,0-3-1.3-3-3v0c0-1.7,1.3-3,3-3h6c1.7,0,3,1.3,3,3v0C85,83.2,83.7,84.6,82,84.6z"/>
</svg>
