<?xml version="1.0" encoding="utf-8"?>
<!-- Generator: Adobe Illustrator 21.1.0, SVG Export Plug-In . SVG Version: 6.00 Build 0)  -->
<svg version="1.1" id="图层_1" xmlns="http://www.w3.org/2000/svg" xmlns:xlink="http://www.w3.org/1999/xlink" x="0px" y="0px"
	 viewBox="0 0 120 120" style="enable-background:new 0 0 120 120;" xml:space="preserve">
<style type="text/css">
	.st0{fill:#CCDFFF;}
	.st1{fill:#CCE1FF;}
	.st2{fill:#EFF7FF;}
	.st3{fill:none;stroke:#CCE1FF;stroke-miterlimit:10;}
</style>
<path class="st0" d="M106,0H14c-2.2,0-4,1.8-4,4v112c0,2.2,1.8,4,4,4h92c2.2,0,4-1.8,4-4V4C110,1.8,108.2,0,106,0z M108,114
	c0,2.2-1.8,4-4,4H16c-2.2,0-4-1.8-4-4V16h96V114z"/>
<path class="st1" d="M72.2,42.1H47.9c-1.7,0-3-1.3-3-3V34c0-1.7,1.3-3,3-3h24.3c1.7,0,3,1.3,3,3v5.1C75.2,40.7,73.9,42.1,72.2,42.1z
	"/>
<path class="st2" d="M52.4,64.2H29.8c-1.1,0-2-0.9-2-2v-7.1c0-1.1,0.9-2,2-2h22.5c1.1,0,2,0.9,2,2v7.1
	C54.4,63.3,53.5,64.2,52.4,64.2z"/>
<path class="st1" d="M92.2,64.2H69.6c-1.1,0-2-0.9-2-2v-7.1c0-1.1,0.9-2,2-2h22.5c1.1,0,2,0.9,2,2v7.1
	C94.2,63.3,93.3,64.2,92.2,64.2z"/>
<path class="st2" d="M25,101V75.5c0-1.1,0.9-2,2-2h7.4c1.1,0,2,0.9,2,2V101c0,1.1-0.9,2-2,2H27C25.9,103,25,102.1,25,101z"/>
<path class="st2" d="M45.8,101V75.5c0-1.1,0.9-2,2-2h7.4c1.1,0,2,0.9,2,2V101c0,1.1-0.9,2-2,2h-7.4C46.7,103,45.8,102.1,45.8,101z"
	/>
<path class="st1" d="M64.8,101V75.5c0-1.1,0.9-2,2-2h7.4c1.1,0,2,0.9,2,2V101c0,1.1-0.9,2-2,2h-7.4C65.7,103,64.8,102.1,64.8,101z"
	/>
<path class="st1" d="M85.6,101V75.5c0-1.1,0.9-2,2-2H95c1.1,0,2,0.9,2,2V101c0,1.1-0.9,2-2,2h-7.4C86.5,103,85.6,102.1,85.6,101z"/>
<path class="st3" d="M41.1,53.2v-3.7c0-1,0.8-1.8,1.9-1.8h36c1,0,1.9,0.8,1.9,1.8v3.7"/>
<line class="st3" x1="60.1" y1="42.1" x2="60.1" y2="47.6"/>
<line class="st3" x1="41.1" y1="64.2" x2="41.1" y2="69.8"/>
<line class="st3" x1="80.9" y1="64.2" x2="80.9" y2="69.8"/>
<path class="st3" d="M30.7,73.5v-1.8c0-1,0.8-1.8,1.9-1.8h17.1c1,0,1.9,0.8,1.9,1.8v1.8"/>
<path class="st3" d="M70.5,73.5v-1.8c0-1,0.8-1.8,1.9-1.8h17.1c1,0,1.9,0.8,1.9,1.8v1.8"/>
</svg>
