<?xml version="1.0" encoding="utf-8"?>
<!-- Generator: Adobe Illustrator 21.1.0, SVG Export Plug-In . SVG Version: 6.00 Build 0)  -->
<svg version="1.1" id="图层_1" xmlns="http://www.w3.org/2000/svg" xmlns:xlink="http://www.w3.org/1999/xlink" x="0px" y="0px"
	 viewBox="0 0 1024 1024" style="enable-background:new 0 0 1024 1024;" xml:space="preserve">
<style type="text/css">
	.st0{fill:url(#SVGID_1_);}
	.st1{fill:url(#SVGID_2_);}
</style>
<g>
	<linearGradient id="SVGID_1_" gradientUnits="userSpaceOnUse" x1="762" y1="661.7957" x2="762" y2="12">
		<stop  offset="0" style="stop-color:#0072FF"/>
		<stop  offset="1" style="stop-color:#00C6FF"/>
	</linearGradient>
	<path class="st0" d="M626.9,512c-22.1,0-40-17.9-40-40V93.6c174.7,31.1,312.5,168.8,343.5,343.5h76
		C973.9,220.9,803.1,50.1,586.9,17.6C562.5,13.9,537.5,12,512,12v494.9c0,44.2,35.8,80,80,80h338.4c-4.6,25.9-11.5,50.9-20.6,74.9
		h79.3c7.6-24.2,13.4-49.2,17.3-74.9c3.7-24.4,5.6-49.4,5.6-74.9H626.9z"/>
	<linearGradient id="SVGID_2_" gradientUnits="userSpaceOnUse" x1="485.3899" y1="1012" x2="485.3899" y2="17.5786">
		<stop  offset="0" style="stop-color:#0072FF"/>
		<stop  offset="1" style="stop-color:#00C6FF"/>
	</linearGradient>
	<path class="st1" d="M362.2,686.7V114.2c24-9,49-16,74.9-20.6v-76c-25.7,3.9-50.7,9.7-74.9,17.3c-25.9,8.1-51,18.3-74.9,30.4v646.4
		c0,55.2,44.8,100,100,100h426.1C736.5,889,629.8,937,512,937C277.4,937,87,746.6,87,512c0-117.8,48-224.5,125.4-301.4v-98.9
		C90.7,202.9,12,348.2,12,512c0,276.5,223.5,500,500,500c163.8,0,309.1-78.7,400.3-200.4c17.6-23.5,33.1-48.5,46.4-74.9H412.2
		C384.6,736.7,362.2,714.3,362.2,686.7z"/>
</g>
</svg>
