<?xml version="1.0" encoding="UTF-8"?>
<svg width="90px" height="120px" viewBox="0 0 90 120" version="1.1" xmlns="http://www.w3.org/2000/svg" xmlns:xlink="http://www.w3.org/1999/xlink">
    <!-- Generator: Sketch 57.1 (83088) - https://sketch.com -->
    <title>form_hover</title>
    <desc>Created with Sketch.</desc>
    <defs>
        <linearGradient x1="-1.11022302e-14%" y1="50%" x2="100%" y2="50%" id="linearGradient-1">
            <stop stop-color="#99BDFF" offset="0%"></stop>
            <stop stop-color="#99C9FF" offset="100%"></stop>
        </linearGradient>
        <linearGradient x1="-1.11022302e-14%" y1="50%" x2="100%" y2="50%" id="linearGradient-2">
            <stop stop-color="#99BDFF" offset="0%"></stop>
            <stop stop-color="#99C9FF" offset="100%"></stop>
        </linearGradient>
        <linearGradient x1="-1.11022302e-14%" y1="50%" x2="100%" y2="50%" id="linearGradient-3">
            <stop stop-color="#99BDFF" offset="0%"></stop>
            <stop stop-color="#99C9FF" offset="100%"></stop>
        </linearGradient>
        <linearGradient x1="-1.11022302e-14%" y1="50%" x2="100%" y2="50%" id="linearGradient-4">
            <stop stop-color="#99BDFF" offset="0%"></stop>
            <stop stop-color="#99C9FF" offset="100%"></stop>
        </linearGradient>
    </defs>
    <g id="迭代31" stroke="none" stroke-width="1" fill="none" fill-rule="evenodd">
        <g id="空白应用_悬停效果" transform="translate(-428.000000, -277.000000)">
            <g id="Group-8-Copy" transform="translate(364.000000, 253.000000)">
                <g id="form_hover" transform="translate(64.000000, 24.000000)">
                    <rect id="Rectangle" stroke="url(#linearGradient-1)" stroke-width="2" x="1" y="1" width="88" height="118" rx="4"></rect>
                    <path d="M4,0 L86,0 C88.209139,-4.05812251e-16 90,1.790861 90,4 L90,16 L90,16 L0,16 L0,4 C-2.705415e-16,1.790861 1.790861,4.05812251e-16 4,0 Z" id="Rectangle" fill="url(#linearGradient-2)"></path>
                    <rect id="Rectangle" fill="url(#linearGradient-3)" x="11" y="25" width="45" height="8" rx="4"></rect>
                    <rect id="Rectangle-Copy-2" fill="url(#linearGradient-4)" x="11" y="40" width="68" height="8" rx="4"></rect>
                    <rect id="Rectangle-Copy-3" fill="url(#linearGradient-4)" x="11" y="55" width="68" height="8" rx="4"></rect>
                    <rect id="Rectangle-Copy-5" stroke="#AED4FF" fill="#AED4FF" opacity="0.400000006" x="11.5" y="70.5" width="67" height="37" rx="4"></rect>
                </g>
            </g>
        </g>
    </g>
</svg>
